# Blender 5.1.1
# www.blender.org
mtllib elevatorlarge.mtl
o Guides
v -1.000000 0.000000 -0.500000
v -1.000000 1.000000 -0.500000
v -1.000000 0.000000 -1.000000
v -1.000000 1.000000 -1.000000
v -0.500000 0.000000 -0.500000
v -0.500000 1.000000 -0.500000
v -0.500000 0.000000 -1.000000
v -0.500000 1.000000 -1.000000
v -1.000000 0.000000 4.000000
v -1.000000 1.000000 4.000000
v -1.000000 0.000000 3.500000
v -1.000000 1.000000 3.500000
v -0.500000 0.000000 4.000000
v -0.500000 1.000000 4.000000
v -0.500000 0.000000 3.500000
v -0.500000 1.000000 3.500000
v 3.500000 0.000000 -0.500000
v 3.500000 1.000000 -0.500000
v 3.500000 0.000000 -1.000000
v 3.500000 1.000000 -1.000000
v 4.000000 0.000000 -0.500000
v 4.000000 1.000000 -0.500000
v 4.000000 0.000000 -1.000000
v 4.000000 1.000000 -1.000000
v 3.500000 0.000000 4.000000
v 3.500000 1.000000 4.000000
v 3.500000 0.000000 3.500000
v 3.500000 1.000000 3.500000
v 4.000000 0.000000 4.000000
v 4.000000 1.000000 4.000000
v 4.000000 0.000000 3.500000
v 4.000000 1.000000 3.500000
vn -1.0000 -0.0000 -0.0000
vn -0.0000 -0.0000 -1.0000
vn 1.0000 -0.0000 -0.0000
vn -0.0000 -0.0000 1.0000
vn -0.0000 -1.0000 -0.0000
vn -0.0000 1.0000 -0.0000
vt 0.557292 1.000000
vt 0.557292 0.937500
vt 0.578125 0.937500
vt 0.578125 1.000000
vt 0.531250 1.000000
vt 0.531250 0.937500
vt 0.552083 0.937500
vt 0.552083 1.000000
vt 0.583333 1.000000
vt 0.583333 0.937500
vt 0.604167 0.937500
vt 0.604167 1.000000
vt 0.609375 1.000000
vt 0.609375 0.937500
vt 0.630208 0.937500
vt 0.630208 1.000000
vt 0.656250 0.908854
vt 0.656250 0.929688
vt 0.635417 0.929688
vt 0.635417 0.908854
vt 0.682292 0.908854
vt 0.682292 0.929688
vt 0.661458 0.929688
vt 0.661458 0.908854
vt 0.635417 1.000000
vt 0.635417 0.937500
vt 0.656250 0.937500
vt 0.656250 1.000000
vt 0.843750 1.000000
vt 0.843750 0.937500
vt 0.864583 0.937500
vt 0.864583 1.000000
vt 0.869792 1.000000
vt 0.869792 0.937500
vt 0.890625 0.937500
vt 0.890625 1.000000
vt 0.817708 1.000000
vt 0.817708 0.937500
vt 0.838542 0.937500
vt 0.838542 1.000000
vt 0.890625 0.929688
vt 0.869792 0.929688
vt 0.869792 0.908854
vt 0.890625 0.908854
vt 0.552083 0.908854
vt 0.552083 0.929688
vt 0.531250 0.929688
vt 0.531250 0.908854
vt 0.791667 1.000000
vt 0.791667 0.937500
vt 0.812500 0.937500
vt 0.812500 1.000000
vt 0.765625 1.000000
vt 0.765625 0.937500
vt 0.786458 0.937500
vt 0.786458 1.000000
vt 0.739583 1.000000
vt 0.739583 0.937500
vt 0.760417 0.937500
vt 0.760417 1.000000
vt 0.713542 1.000000
vt 0.713542 0.937500
vt 0.734375 0.937500
vt 0.734375 1.000000
vt 0.786458 0.908854
vt 0.786458 0.929688
vt 0.765625 0.929688
vt 0.765625 0.908854
vt 0.760417 0.908854
vt 0.760417 0.929688
vt 0.739583 0.929688
vt 0.739583 0.908854
vt 0.687500 1.000000
vt 0.687500 0.937500
vt 0.708333 0.937500
vt 0.708333 1.000000
vt 0.661458 1.000000
vt 0.661458 0.937500
vt 0.682292 0.937500
vt 0.682292 1.000000
vt 0.505208 1.000000
vt 0.505208 0.937500
vt 0.526042 0.937500
vt 0.526042 1.000000
vt 0.479167 1.000000
vt 0.479167 0.937500
vt 0.500000 0.937500
vt 0.500000 1.000000
vt 0.578125 0.908854
vt 0.578125 0.929688
vt 0.557292 0.929688
vt 0.557292 0.908854
vt 0.864583 0.929688
vt 0.843750 0.929688
vt 0.843750 0.908854
vt 0.864583 0.908854
s 0
usemtl Material.002
f 1/1/1 2/2/1 4/3/1 3/4/1
f 3/5/2 4/6/2 8/7/2 7/8/2
f 7/9/3 8/10/3 6/11/3 5/12/3
f 5/13/4 6/14/4 2/15/4 1/16/4
f 3/17/5 7/18/5 5/19/5 1/20/5
f 8/21/6 4/22/6 2/23/6 6/24/6
f 9/25/1 10/26/1 12/27/1 11/28/1
f 11/29/2 12/30/2 16/31/2 15/32/2
f 15/33/3 16/34/3 14/35/3 13/36/3
f 13/37/4 14/38/4 10/39/4 9/40/4
f 11/41/5 15/42/5 13/43/5 9/44/5
f 16/45/6 12/46/6 10/47/6 14/48/6
f 17/49/1 18/50/1 20/51/1 19/52/1
f 19/53/2 20/54/2 24/55/2 23/56/2
f 23/57/3 24/58/3 22/59/3 21/60/3
f 21/61/4 22/62/4 18/63/4 17/64/4
f 19/65/5 23/66/5 21/67/5 17/68/5
f 24/69/6 20/70/6 18/71/6 22/72/6
f 25/73/1 26/74/1 28/75/1 27/76/1
f 27/77/2 28/78/2 32/79/2 31/80/2
f 31/81/3 32/82/3 30/83/3 29/84/3
f 29/85/4 30/86/4 26/87/4 25/88/4
f 27/89/5 31/90/5 29/91/5 25/92/5
f 32/93/6 28/94/6 26/95/6 30/96/6
o Base
v 0.000000 0.000000 3.000000
v 0.000000 0.125000 3.000000
v 0.000000 0.000000 0.000000
v 0.000000 0.125000 0.000000
v 3.000000 0.000000 3.000000
v 3.000000 0.125000 3.000000
v 3.000000 0.000000 0.000000
v 3.000000 0.125000 0.000000
v 0.500000 0.100000 2.500000
v 0.500000 0.250000 2.500000
v 0.500000 0.100000 0.500000
v 0.500000 0.250000 0.500000
v 2.500000 0.100000 2.500000
v 2.500000 0.250000 2.500000
v 2.500000 0.100000 0.500000
v 2.500000 0.250000 0.500000
vn -1.0000 -0.0000 -0.0000
vn -0.0000 -0.0000 -1.0000
vn 1.0000 -0.0000 -0.0000
vn -0.0000 -0.0000 1.0000
vn -0.0000 -1.0000 -0.0000
vn -0.0000 1.0000 -0.0000
vt 0.598958 0.630208
vt 0.611979 0.630208
vt 0.611979 0.817708
vt 0.598958 0.817708
vt 0.398438 0.630208
vt 0.411458 0.630208
vt 0.411458 0.817708
vt 0.398438 0.817708
vt 0.411458 0.617188
vt 0.598958 0.617188
vt 0.411458 0.830729
vt 0.598958 0.830729
vt 0.809896 0.635417
vt 0.809896 0.822917
vt 0.622396 0.822917
vt 0.622396 0.635417
vt 0.390625 0.664062
vt 0.390625 0.830729
vt 0.223958 0.830729
vt 0.223958 0.664062
s 0
usemtl Material.001
f 33/97/7 34/98/7 36/99/7 35/100/7
f 35/101/8 36/102/8 40/103/8 39/104/8
f 39/102/9 40/105/9 38/106/9 37/97/9
f 37/107/10 38/103/10 34/100/10 33/108/10
f 35/109/11 39/110/11 37/111/11 33/112/11
f 40/97/12 36/100/12 34/103/12 38/102/12
f 41/97/7 42/98/7 44/99/7 43/100/7
f 43/101/8 44/102/8 48/103/8 47/104/8
f 47/102/9 48/105/9 46/106/9 45/97/9
f 45/107/10 46/103/10 42/100/10 41/108/10
f 48/113/12 44/114/12 42/115/12 46/116/12
o Piston
v 1.150000 -0.275000 1.850000
v 1.150000 0.850000 1.850000
v 1.150000 -0.275000 1.150000
v 1.150000 0.850000 1.150000
v 1.850000 -0.275000 1.850000
v 1.850000 0.850000 1.850000
v 1.850000 -0.275000 1.150000
v 1.850000 0.850000 1.150000
vn -1.0000 -0.0000 -0.0000
vn -0.0000 -0.0000 -1.0000
vn 1.0000 -0.0000 -0.0000
vn -0.0000 -0.0000 1.0000
vt 0.317708 0.908854
vt 0.317708 0.846354
vt 0.348958 0.846354
vt 0.348958 0.908854
vt 0.286458 0.908854
vt 0.286458 0.846354
vt 0.255208 0.908854
vt 0.255208 0.846354
vt 0.223958 0.908854
vt 0.223958 0.846354
s 0
usemtl Material.003
f 49/117/13 50/118/13 52/119/13 51/120/13
f 51/121/14 52/122/14 56/118/14 55/117/14
f 55/123/15 56/124/15 54/122/15 53/121/15
f 53/125/16 54/126/16 50/124/16 49/123/16
o Platform
v 0.000000 0.750000 3.000000
v 0.000000 0.937500 3.000000
v 0.000000 0.750000 0.000000
v 0.000000 0.937500 0.000000
v 3.000000 0.750000 3.000000
v 3.000000 0.937500 3.000000
v 3.000000 0.750000 0.000000
v 3.000000 0.937500 0.000000
v 0.000000 0.937500 -1.000000
v 0.000000 0.750000 -1.000000
v 3.000000 0.750000 -1.000000
v 3.000000 0.937500 -1.000000
v 0.000000 0.750000 4.000000
v 0.000000 0.937500 4.000000
v 3.000000 0.937500 4.000000
v 3.000000 0.750000 4.000000
v 4.000000 0.937500 0.000000
v 4.000000 0.750000 0.000000
v 4.000000 0.750000 3.000000
v 4.000000 0.937500 3.000000
v -1.000000 0.750000 0.000000
v -1.000000 0.750000 3.000000
v -1.000000 0.937500 3.000000
v -1.000000 0.937500 0.000000
v -0.500000 0.750000 3.000000
v -0.500000 0.750000 4.000000
v -0.500000 0.937500 0.000000
v -0.500000 0.937500 3.000000
v -0.500000 0.750000 0.000000
v -0.500000 0.937500 4.000000
v -0.500000 0.750000 -1.000000
v -0.500000 0.937500 -1.000000
v 0.000000 0.750000 3.500000
v 0.000000 0.937500 3.500000
v 3.000000 0.750000 3.500000
v 3.000000 0.937500 3.500000
v 4.000000 0.750000 3.500000
v 4.000000 0.937500 3.500000
v -1.000000 0.750000 3.500000
v -1.000000 0.937500 3.500000
v -0.500000 0.937500 3.500000
v -0.500000 0.750000 3.500000
v 3.000000 0.750000 -0.500000
v 3.000000 0.937500 -0.500000
v 0.000000 0.750000 -0.500000
v 0.000000 0.937500 -0.500000
v 4.000000 0.750000 -0.500000
v 4.000000 0.937500 -0.500000
v -1.000000 0.750000 -0.500000
v -1.000000 0.937500 -0.500000
v -0.500000 0.937500 -0.500000
v -0.500000 0.750000 -0.500000
v 3.500000 0.750000 3.000000
v 3.500000 0.750000 0.000000
v 3.500000 0.937500 4.000000
v 3.500000 0.937500 3.000000
v 3.500000 0.750000 -1.000000
v 3.500000 0.750000 4.000000
v 3.500000 0.937500 0.000000
v 3.500000 0.937500 -1.000000
v 3.500000 0.750000 3.500000
v 3.500000 0.937500 3.500000
v 3.500000 0.937500 -0.500000
v 3.500000 0.750000 -0.500000
v 0.752044 0.989398 2.311597
v 0.752044 0.626588 2.311597
v 0.752044 0.989398 0.811597
v 0.752044 0.626588 0.811597
v 2.237842 0.989398 2.311597
v 2.237842 0.626588 2.311597
v 2.237842 0.989398 0.811597
v 2.237842 0.626588 0.811597
vn -0.0000 -1.0000 -0.0000
vn -0.0000 1.0000 -0.0000
vn -0.0000 -0.0000 -1.0000
vn -0.0000 -0.0000 1.0000
vn 1.0000 -0.0000 -0.0000
vn -1.0000 -0.0000 -0.0000
vt 0.166667 0.812500
vt 0.041667 0.812500
vt 0.041667 0.791667
vt 0.166667 0.791667
vt 0.041667 0.765625
vt 0.166667 0.765625
vt 0.166667 0.786458
vt 0.041667 0.786458
vt 0.166667 0.833333
vt 0.166667 0.958333
vt 0.041667 0.958333
vt 0.041667 0.833333
vt 0.166667 0.619792
vt 0.166667 0.744792
vt 0.041667 0.744792
vt 0.041667 0.619792
vt 0.377604 0.898438
vt 0.377604 0.888021
vt 0.502604 0.888021
vt 0.502604 0.898438
vt 0.187500 0.958333
vt 0.187500 0.833333
vt 0.208333 0.833333
vt 0.208333 0.958333
vt 0.187500 0.744792
vt 0.187500 0.619792
vt 0.208333 0.619792
vt 0.208333 0.744792
vt 0.377604 0.911458
vt 0.377604 0.901042
vt 0.502604 0.901042
vt 0.502604 0.911458
vt 0.020833 0.833333
vt 0.020833 0.958333
vt -0.000000 0.958333
vt -0.000000 0.833333
vt 0.020833 0.619792
vt 0.020833 0.744792
vt -0.000000 0.744792
vt -0.000000 0.619792
vt 0.041667 0.979167
vt 0.166667 0.979167
vt 0.166667 1.000000
vt 0.041667 1.000000
vt 0.502604 0.861979
vt 0.502604 0.872396
vt 0.377604 0.872396
vt 0.377604 0.861979
vt 0.166667 0.598958
vt 0.041667 0.598958
vt 0.041667 0.578125
vt 0.166667 0.578125
vt 0.187500 0.598958
vt 0.187500 0.578125
vt 0.020833 0.979167
vt 0.020833 1.000000
vt 0.377604 0.885417
vt 0.377604 0.875000
vt 0.502604 0.875000
vt 0.502604 0.885417
vt 0.187500 0.812500
vt 0.187500 0.791667
vt 0.020833 0.765625
vt 0.020833 0.786458
vt 0.611979 0.885417
vt 0.575521 0.885417
vt 0.575521 0.875000
vt 0.611979 0.875000
vt 0.208333 0.765625
vt 0.187500 0.765625
vt 0.356771 0.898438
vt 0.356771 0.888021
vt 0.523438 0.901042
vt 0.523438 0.911458
vt -0.000000 0.812500
vt 0.020833 0.812500
vt -0.000000 0.765625
vt 0.356771 0.885417
vt 0.356771 0.875000
vt 0.356771 0.872396
vt 0.356771 0.861979
vt 0.020833 0.791667
vt 0.020833 0.598958
vt 0.020833 0.578125
vt 0.208333 0.812500
vt 0.187500 0.786458
vt 0.570312 0.901042
vt 0.533854 0.901042
vt 0.533854 0.890625
vt 0.570312 0.890625
vt 0.523438 0.875000
vt 0.523438 0.885417
vt 0.523438 0.861979
vt 0.523438 0.872396
vt 0.187500 0.979167
vt 0.187500 1.000000
vt 0.208333 0.598958
vt -0.000000 0.979167
vt 0.523438 0.888021
vt 0.523438 0.898438
vt 0.356771 0.911458
vt 0.356771 0.901042
vt -0.000000 0.598958
vt 0.208333 0.979167
vt 0.653646 0.890625
vt 0.653646 0.901042
vt 0.617188 0.901042
vt 0.617188 0.890625
vt 0.611979 0.890625
vt 0.611979 0.901042
vt 0.575521 0.901042
vt 0.575521 0.890625
vt 0.533854 0.885417
vt 0.533854 0.875000
vt 0.570312 0.875000
vt 0.570312 0.885417
vt 0.658854 0.901042
vt 0.658854 0.890625
vt 0.695312 0.890625
vt 0.695312 0.901042
vt 0.653646 0.875000
vt 0.653646 0.885417
vt 0.617188 0.885417
vt 0.617188 0.875000
vt 0.695312 0.875000
vt 0.695312 0.885417
vt 0.658854 0.885417
vt 0.658854 0.875000
vt 0.375000 0.989583
vt 0.375000 1.000000
vt 0.315104 1.000000
vt 0.315104 0.989583
vt 0.375000 0.950521
vt 0.375000 0.960938
vt 0.315104 0.960938
vt 0.315104 0.950521
vt 0.375000 0.976562
vt 0.375000 0.986979
vt 0.315104 0.986979
vt 0.315104 0.976562
vt 0.375000 0.963542
vt 0.375000 0.973958
vt 0.315104 0.973958
vt 0.315104 0.963542
vt 0.466146 1.000000
vt 0.382812 1.000000
vt 0.382812 0.916667
vt 0.466146 0.916667
vt 0.307292 1.000000
vt 0.223958 1.000000
vt 0.223958 0.916667
vt 0.307292 0.916667
s 0
usemtl Material.004
f 85/127/17 81/128/17 78/129/17 77/130/17
f 84/131/18 83/132/18 80/133/18 79/134/18
f 59/135/17 63/136/17 61/137/17 57/138/17
f 64/139/18 60/140/18 58/141/18 62/142/18
f 66/143/19 65/144/19 68/145/19 67/146/19
f 99/147/17 101/148/17 66/149/17 67/150/17
f 102/151/18 100/152/18 68/153/18 65/154/18
f 72/155/20 71/156/20 70/157/20 69/158/20
f 89/159/17 91/160/17 72/161/17 69/162/17
f 92/163/18 90/164/18 70/165/18 71/166/18
f 109/167/17 110/168/17 74/169/17 75/170/17
f 74/171/21 73/172/21 76/173/21 75/174/21
f 115/175/18 112/176/18 76/177/18 73/178/18
f 119/179/18 115/175/18 73/178/18 104/180/18
f 117/181/17 109/167/17 75/170/17 93/182/17
f 78/183/22 79/184/22 80/185/22 77/186/22
f 108/187/17 85/127/17 77/130/17 105/188/17
f 97/189/18 84/131/18 79/134/18 96/190/18
f 87/191/22 108/192/22 107/193/22 88/194/22
f 102/151/18 65/154/18 88/195/18 107/196/18
f 65/144/19 66/143/19 87/197/19 88/198/19
f 90/164/18 58/141/18 84/131/18 97/189/18
f 101/148/17 59/135/17 85/127/17 108/187/17
f 69/158/20 70/157/20 86/199/20 82/200/20
f 89/159/17 69/162/17 82/201/17 98/202/17
f 58/141/18 60/140/18 83/132/18 84/131/18
f 59/135/17 57/138/17 81/128/17 85/127/17
f 57/138/17 89/159/17 98/202/17 81/128/17
f 70/165/18 90/164/18 97/189/18 86/203/18
f 79/184/22 78/183/22 95/204/22 96/205/22
f 75/174/21 76/173/21 94/206/21 93/207/21
f 62/142/18 58/141/18 90/164/18 92/163/18
f 57/138/17 61/137/17 91/160/17 89/159/17
f 81/128/17 98/202/17 95/208/17 78/129/17
f 112/176/18 118/209/18 94/210/18 76/177/18
f 66/149/17 101/148/17 108/187/17 87/211/17
f 60/140/18 102/151/18 107/196/18 83/132/18
f 83/132/18 107/196/18 106/212/18 80/133/18
f 108/213/19 105/214/19 106/215/19 107/216/19
f 77/186/22 80/185/22 106/217/22 105/218/22
f 73/172/21 74/171/21 103/219/21 104/220/21
f 60/140/18 64/139/18 100/152/18 102/151/18
f 63/136/17 59/135/17 101/148/17 99/147/17
f 110/168/17 120/221/17 103/222/17 74/169/17
f 63/136/17 99/147/17 120/221/17 110/168/17
f 68/153/18 100/152/18 119/179/18 116/223/18
f 62/142/18 92/163/18 118/209/18 112/176/18
f 72/161/17 91/160/17 117/181/17 114/224/17
f 67/146/19 68/145/19 116/225/19 113/226/19
f 91/160/17 61/137/17 109/167/17 117/181/17
f 100/152/18 64/139/18 115/175/18 119/179/18
f 64/139/18 62/142/18 112/176/18 115/175/18
f 71/156/20 72/155/20 114/227/20 111/228/20
f 61/137/17 63/136/17 110/168/17 109/167/17
f 92/163/18 71/166/18 111/229/18 118/209/18
f 99/147/17 67/150/17 113/230/17 120/221/17
f 119/231/21 120/232/21 113/233/21 116/234/21
f 104/235/19 103/236/19 120/237/19 119/238/19
f 117/239/21 118/240/21 111/241/21 114/242/21
f 93/243/20 94/244/20 118/245/20 117/246/20
f 96/247/20 95/248/20 98/249/20 97/250/20
f 97/251/22 98/252/22 82/253/22 86/254/22
f 121/255/21 122/256/21 124/257/21 123/258/21
f 123/259/20 124/260/20 128/261/20 127/262/20
f 127/263/22 128/264/22 126/265/22 125/266/22
f 125/267/19 126/268/19 122/269/19 121/270/19
f 123/271/17 127/272/17 125/273/17 121/274/17
f 128/275/18 124/276/18 122/277/18 126/278/18
